<svg width="97" height="40" viewBox="0 0 97 40" fill="none" xmlns="http://www.w3.org/2000/svg">
    <g clip-path="url(#clip0_552_14079)">
    <path d="M28.1555 7.68254e-05L35.0823 4.78906L11.1373 39.4227L4.21061 34.6338L28.1555 7.68254e-05Z" fill="black"/>
    <path d="M11.1372 7.28099e-05L4.21045 4.78906L28.1554 39.4228L35.0821 34.6338L11.1372 7.28099e-05Z" fill="black"/>
    <path d="M42.0701 8.43232V8.46741H42.1052H46.8123V34.3857V34.4208H46.8474H51.3138H51.3489V34.3857V8.46741H56.0388H56.0739V8.43232V4.91204V4.87695H56.0388H42.1052H42.0701V4.91204V8.43232Z" fill="black" stroke="black" stroke-width="0.1"/>
    <path d="M67.743 4.94606C67.087 4.9 66.4826 4.87695 65.9298 4.87695H61.0842H61.0491V4.91204V34.3857V34.4208H61.0842H65.4642H65.4993V34.3857V23.3941H67.1122L71.0182 34.3974L71.0266 34.4208H71.0512H75.7768H75.8287L75.8091 34.3727L71.0961 22.6167C72.3431 21.9903 73.287 20.9764 73.9291 19.5772C74.5754 18.156 74.8975 16.3214 74.8975 14.0751V13.3331C74.8975 11.9963 74.7536 10.8594 74.4652 9.92327C74.1768 8.97695 73.7901 8.19071 73.3038 7.56537C72.8301 6.94088 72.2807 6.44876 71.6554 6.08963C71.0435 5.7315 70.4028 5.4657 69.7328 5.29231C69.0754 5.10767 68.4122 4.99224 67.743 4.94606ZM67.7406 4.98107C68.4073 5.02708 69.0684 5.14213 69.7237 5.32619L61.1192 4.91204H65.9298C66.4817 4.91204 67.0853 4.93505 67.7406 4.98107ZM69.439 9.24958C69.7677 9.60116 70.0012 10.0505 70.138 10.5979C70.275 11.1465 70.3438 11.7993 70.3438 12.5565V14.8861C70.3438 15.8739 70.2694 16.7052 70.1206 17.3807C69.9719 18.044 69.7324 18.5793 69.4034 18.9882C69.0746 19.3852 68.6437 19.6691 68.1093 19.8398C67.5734 20.0109 66.9162 20.097 66.1368 20.097H65.4993V8.20853H66.1368C66.9509 8.20853 67.6253 8.29464 68.161 8.46573C68.6965 8.63674 69.1219 8.89836 69.439 9.24958Z" fill="black"/>
    <path d="M67.7406 4.98107L67.743 4.94606M67.7406 4.98107C68.4073 5.02708 69.0684 5.14213 69.7237 5.32619L61.1192 4.91204H65.9298C66.4817 4.91204 67.0853 4.93505 67.7406 4.98107ZM67.743 4.94606C67.087 4.9 66.4826 4.87695 65.9298 4.87695H61.0842H61.0491V4.91204V34.3857V34.4208H61.0842H65.4642H65.4993V34.3857V23.3941H67.1122L71.0182 34.3974L71.0266 34.4208H71.0512H75.7768H75.8287L75.8091 34.3727L71.0961 22.6167C72.3431 21.9903 73.287 20.9764 73.9291 19.5772C74.5754 18.156 74.8975 16.3214 74.8975 14.0751V13.3331C74.8975 11.9963 74.7536 10.8594 74.4652 9.92327C74.1768 8.97695 73.7901 8.19071 73.3038 7.56537C72.8301 6.94088 72.2807 6.44876 71.6554 6.08963C71.0435 5.7315 70.4028 5.4657 69.7328 5.29231C69.0754 5.10767 68.4122 4.99224 67.743 4.94606ZM69.439 9.24958C69.7677 9.60116 70.0012 10.0505 70.138 10.5979C70.275 11.1465 70.3438 11.7993 70.3438 12.5565V14.8861C70.3438 15.8739 70.2694 16.7052 70.1206 17.3807C69.9719 18.044 69.7324 18.5793 69.4034 18.9882C69.0746 19.3852 68.6437 19.6691 68.1093 19.8398C67.5734 20.0109 66.9162 20.097 66.1368 20.097H65.4993V8.20853H66.1368C66.9509 8.20853 67.6253 8.29464 68.161 8.46573C68.6965 8.63674 69.1219 8.89836 69.439 9.24958Z" stroke="black" stroke-width="0.1"/>
    <path d="M85.4324 4.87695H85.4029L85.3973 4.90568L79.9657 34.3793L79.958 34.4208H80.0001H84.5355H84.5657L84.5699 34.3908L85.3419 29.1404H90.6619L91.4675 34.3911L91.4724 34.4208H91.5026H96.0205H96.0626L96.0549 34.3793L90.6057 4.90566L90.6001 4.87695H90.5713H85.4324ZM87.9461 11.0904H88.0745L90.1341 25.7052H85.8689L87.9461 11.0904Z" fill="black" stroke="black" stroke-width="0.1"/>
    </g>
    <defs>
    <clipPath id="clip0_552_14079">
    <rect width="96.1404" height="40" fill="white"/>
    </clipPath>
    </defs>
    </svg>
    